<?xml version="1.0" standalone="no"?>
<!DOCTYPE svg PUBLIC "-//W3C//DTD SVG 20010904//EN"
 "http://www.w3.org/TR/2001/REC-SVG-20010904/DTD/svg10.dtd">
<svg version="1.0" xmlns="http://www.w3.org/2000/svg"
 width="512.000000pt" height="512.000000pt" viewBox="0 0 512.000000 512.000000"
 preserveAspectRatio="xMidYMid meet">

<g transform="translate(0.000000,512.000000) scale(0.100000,-0.100000)"
fill="#000000" stroke="none">
<path d="M3367 4559 c-51 -12 -794 -435 -807 -459 -5 -10 -10 -28 -10 -40 0
-28 43 -70 73 -70 12 0 191 95 396 211 205 116 383 212 396 212 18 0 1506
-834 1535 -860 6 -5 -55 -115 -64 -115 -7 0 -457 253 -1126 635 -215 123 -324
180 -345 180 -21 0 -234 -116 -720 -392 -379 -216 -704 -401 -722 -411 l-32
-19 -31 53 c-16 30 -30 57 -30 62 0 5 111 72 247 149 268 152 287 168 264 222
-14 35 -54 57 -85 47 -11 -4 -144 -77 -294 -162 -285 -162 -302 -176 -302
-239 0 -42 127 -261 161 -279 36 -18 90 -18 115 1 10 8 22 15 27 15 4 0 7
-272 7 -605 l0 -605 -935 0 -935 0 0 54 c0 69 -26 106 -75 106 -24 0 -39 -7
-54 -26 -21 -26 -21 -33 -21 -798 0 -747 1 -772 20 -803 10 -18 31 -40 47 -50
26 -17 127 -18 2328 -18 2516 0 2343 -4 2388 59 20 28 22 45 25 191 3 152 2
162 -18 188 -24 31 -73 37 -106 13 -17 -13 -20 -31 -24 -158 l-5 -143 -132 -3
-133 -3 0 668 c0 738 2 709 -63 757 -28 20 -40 21 -417 21 -377 0 -389 -1
-417 -21 -65 -48 -63 -19 -63 -757 l0 -667 -627 2 -628 3 -3 1342 -2 1342 312
177 c172 98 450 255 617 351 167 95 309 173 315 173 6 0 288 -157 626 -349
l615 -349 5 -1066 c5 -1164 1 -1086 62 -1101 22 -6 33 -1 58 23 l30 30 0 1011
0 1012 30 -16 c36 -19 83 -19 118 -1 34 17 162 239 162 280 0 33 -25 78 -52
95 -12 7 -165 95 -342 195 -176 100 -524 298 -772 439 -386 219 -508 281 -544
276 -3 -1 -22 -5 -43 -10z m873 -3209 l0 -650 -330 0 -330 0 0 650 0 650 330
0 330 0 0 -650z m-3740 485 l0 -105 -175 0 -175 0 0 105 0 105 175 0 175 0 0
-105z m508 3 l-3 -103 -175 0 -175 0 -3 103 -3 102 181 0 181 0 -3 -102z m502
-3 l0 -105 -175 0 -175 0 0 105 0 105 175 0 175 0 0 -105z m510 0 l0 -105
-180 0 -180 0 0 105 0 105 180 0 180 0 0 -105z m-1520 -355 l0 -100 -175 0
-175 0 0 100 0 100 175 0 175 0 0 -100z m510 0 l0 -100 -180 0 -180 0 0 100 0
100 180 0 180 0 0 -100z m500 0 l0 -100 -175 0 -175 0 0 100 0 100 175 0 175
0 0 -100z m510 0 l0 -100 -180 0 -180 0 0 100 0 100 180 0 180 0 0 -100z
m-1520 -355 l0 -105 -175 0 -175 0 0 105 0 105 175 0 175 0 0 -105z m508 -2
l3 -103 -181 0 -180 0 0 98 c0 54 3 102 7 106 4 3 84 5 177 4 l171 -3 3 -102z
m502 2 l0 -105 -175 0 -175 0 0 105 0 105 175 0 175 0 0 -105z m510 0 l0 -105
-180 0 -180 0 0 105 0 105 180 0 180 0 0 -105z m-10 -340 l0 -85 -930 0 -930
0 0 85 0 85 930 0 930 0 0 -85z"/>
<path d="M3361 3770 c-94 -23 -161 -111 -161 -212 0 -190 213 -287 357 -163
110 94 94 277 -29 349 -49 28 -117 39 -167 26z m93 -161 c32 -25 35 -70 6 -99
-41 -41 -110 -13 -110 43 0 37 7 49 35 65 28 16 39 15 69 -9z"/>
<path d="M2832 3529 c-46 -14 -115 -85 -130 -135 -28 -93 -4 -175 67 -236 164
-140 407 18 347 225 -34 118 -159 182 -284 146z m128 -166 c22 -28 21 -66 -3
-90 -41 -40 -117 -9 -117 48 0 65 80 93 120 42z"/>
<path d="M3835 3521 c-84 -38 -129 -107 -129 -196 0 -196 232 -296 366 -158
71 73 86 159 44 249 -49 106 -176 153 -281 105z m135 -151 c42 -42 11 -113
-50 -113 -22 0 -39 7 -52 22 -23 30 -23 52 3 85 25 32 70 35 99 6z"/>
<path d="M831 3215 c-66 -19 -104 -42 -153 -92 -60 -62 -83 -123 -83 -223 0
-73 4 -92 27 -135 15 -27 35 -59 45 -71 21 -24 306 -272 343 -297 29 -20 104
-22 137 -4 12 7 97 78 190 158 211 183 228 208 228 349 0 110 -21 166 -88 233
-88 88 -240 118 -349 69 -48 -21 -48 -21 -91 -2 -61 27 -141 33 -206 15z m179
-169 c58 -38 70 -38 144 -1 76 38 95 41 147 24 72 -24 119 -90 119 -164 0 -70
-22 -105 -118 -186 -48 -41 -117 -100 -154 -132 l-67 -58 -150 131 c-83 72
-158 142 -167 154 -38 58 -30 145 19 200 59 68 153 81 227 32z"/>
<path d="M3315 3167 c-97 -33 -179 -98 -219 -175 -9 -18 -34 -39 -60 -51 -183
-89 -229 -327 -91 -479 20 -23 62 -54 93 -69 l57 -28 320 0 320 0 57 28 c65
32 121 90 151 156 29 65 28 168 -2 238 -26 58 -102 136 -155 158 -21 9 -43 30
-59 58 -35 59 -98 114 -166 145 -67 31 -183 39 -246 19z m216 -172 c22 -14 55
-49 73 -78 40 -61 57 -78 112 -105 92 -46 123 -127 82 -210 -17 -35 -34 -53
-68 -70 -44 -22 -50 -23 -331 -20 l-286 3 -35 27 c-45 34 -73 102 -64 152 9
46 48 91 100 118 55 27 72 44 111 104 55 86 112 116 208 110 42 -3 70 -12 98
-31z"/>
<path d="M2449 1905 c-14 -8 -35 -27 -45 -42 -18 -26 -19 -51 -19 -353 0 -306
1 -327 20 -354 36 -53 55 -56 402 -56 301 0 320 1 351 20 59 36 62 56 62 390
0 334 -3 354 -62 390 -31 19 -49 20 -358 20 -261 -1 -330 -4 -351 -15z m621
-395 l0 -260 -270 0 -270 0 0 260 0 260 270 0 270 0 0 -260z"/>
</g>
</svg>
