<?xml version="1.0" standalone="no"?>
<!DOCTYPE svg PUBLIC "-//W3C//DTD SVG 20010904//EN"
 "http://www.w3.org/TR/2001/REC-SVG-20010904/DTD/svg10.dtd">
<svg version="1.0" xmlns="http://www.w3.org/2000/svg"
 width="512.000000pt" height="512.000000pt" viewBox="0 0 512.000000 512.000000"
 preserveAspectRatio="xMidYMid meet">

<g transform="translate(0.000000,512.000000) scale(0.100000,-0.100000)"
fill="#000000" stroke="none">
<path d="M3328 5091 c-27 -24 -33 -36 -33 -71 0 -35 6 -47 33 -71 31 -28 36
-29 134 -29 l102 0 -126 -128 c-70 -70 -132 -141 -138 -156 -14 -39 -5 -78 26
-107 25 -24 28 -24 270 -27 l245 -3 34 34 c39 39 44 70 20 117 -22 43 -43 50
-157 50 l-103 0 127 128 c155 156 165 174 136 237 -23 51 -47 55 -302 55
l-236 0 -32 -29z"/>
<path d="M1268 4691 c-27 -24 -33 -36 -33 -71 0 -35 6 -47 33 -71 31 -28 36
-29 134 -29 l102 0 -126 -128 c-70 -70 -132 -141 -138 -156 -14 -39 -5 -78 26
-107 25 -24 28 -24 270 -27 l245 -3 36 36 c32 32 35 39 30 78 -4 28 -14 49
-32 64 -24 21 -37 23 -133 23 l-107 0 127 128 c155 156 165 174 136 237 -23
51 -47 55 -302 55 l-236 0 -32 -29z"/>
<path d="M2453 4043 c-12 -2 -34 -18 -48 -34 -35 -43 -34 -92 4 -130 29 -28
31 -29 138 -29 l108 0 -121 -122 c-67 -68 -129 -134 -138 -148 -26 -39 -21
-87 13 -121 l29 -29 241 0 c158 0 249 4 265 11 14 7 32 27 41 46 13 28 14 40
5 69 -19 57 -58 74 -170 74 l-94 0 131 133 c81 82 133 143 137 160 10 44 -21
99 -64 114 -33 11 -424 16 -477 6z"/>
<path d="M1087 2964 c-152 -28 -298 -105 -409 -216 -87 -87 -122 -144 -226
-368 l-91 -195 -58 -21 c-86 -30 -117 -49 -170 -103 -95 -97 -134 -221 -113
-363 70 -491 153 -967 181 -1054 55 -165 155 -310 293 -425 87 -73 261 -161
376 -192 l85 -22 1605 0 1605 0 83 22 c260 70 471 230 601 458 75 132 96 216
176 728 93 593 89 562 75 633 -30 147 -119 253 -258 310 l-56 22 -96 205 c-54
113 -117 234 -142 269 -103 143 -246 244 -429 300 l-74 23 -1440 2 c-1211 1
-1452 -1 -1518 -13z m265 -252 c239 -290 377 -666 378 -1026 l0 -98 -37 6
c-21 4 -78 27 -128 51 -78 38 -120 70 -315 240 -124 109 -245 210 -270 226
-76 49 -158 69 -282 69 l-110 0 6 25 c14 54 147 313 184 358 78 92 170 153
287 190 59 19 90 23 171 26 l60 1 56 -68z m2228 64 c0 -3 -25 -42 -56 -88
-197 -293 -314 -680 -314 -1040 l0 -68 -640 0 -640 0 0 103 c0 335 -116 715
-302 992 -30 44 -57 86 -61 93 -7 9 196 12 1002 12 556 0 1011 -2 1011 -4z
m452 -11 c138 -29 272 -116 351 -227 35 -49 177 -333 177 -354 0 -2 -56 -4
-124 -4 -139 0 -216 -18 -296 -69 -25 -15 -124 -98 -221 -183 -97 -85 -202
-177 -235 -203 -57 -47 -191 -117 -246 -129 l-28 -6 0 67 c1 238 61 503 164
717 51 106 161 275 231 354 46 51 47 52 103 52 31 0 87 -7 124 -15z m-3190
-808 c26 -12 142 -105 258 -207 117 -102 233 -200 258 -219 68 -48 199 -109
295 -134 81 -22 88 -22 907 -22 l825 0 85 23 c104 27 213 78 294 136 34 24
151 123 261 220 110 97 222 187 249 201 49 24 56 25 263 25 240 0 260 -5 321
-74 63 -72 63 -67 -22 -607 -42 -267 -83 -512 -92 -545 -65 -252 -277 -460
-539 -530 -67 -18 -138 -19 -1645 -19 -1509 0 -1578 1 -1645 19 -251 67 -449
253 -528 496 -16 47 -54 259 -102 570 -86 550 -86 544 -23 616 61 69 77 73
318 73 202 1 218 -1 262 -22z"/>
<path d="M2050 1094 c-74 -32 -113 -90 -113 -169 0 -51 19 -101 48 -125 14
-12 14 -15 -3 -34 -33 -36 -45 -68 -45 -121 0 -58 20 -102 62 -138 95 -80 226
-50 288 65 l28 53 258 3 258 2 18 -43 c45 -105 152 -152 246 -108 110 51 146
176 78 274 l-26 37 20 23 c48 53 53 151 11 213 -84 123 -268 103 -326 -36 -8
-19 -19 -38 -26 -42 -6 -4 -123 -8 -259 -8 l-248 0 -17 31 c-39 72 -60 95
-102 117 -51 25 -100 28 -150 6z"/>
</g>
</svg>
