<?xml version="1.0" standalone="no"?>
<!DOCTYPE svg PUBLIC "-//W3C//DTD SVG 20010904//EN"
 "http://www.w3.org/TR/2001/REC-SVG-20010904/DTD/svg10.dtd">
<svg version="1.0" xmlns="http://www.w3.org/2000/svg"
 width="512.000000pt" height="512.000000pt" viewBox="0 0 512.000000 512.000000"
 preserveAspectRatio="xMidYMid meet">

<g transform="translate(0.000000,512.000000) scale(0.100000,-0.100000)"
fill="#000000" stroke="none">
<path d="M3445 4747 c-111 -53 -170 -147 -183 -289 l-7 -84 -260 148 c-143 81
-282 156 -310 165 -77 26 -195 23 -270 -9 -61 -25 -2175 -1226 -2252 -1279
-23 -16 -60 -54 -82 -85 -57 -80 -76 -141 -76 -249 0 -80 4 -97 32 -157 108
-229 370 -312 589 -187 l53 30 3 -314 c3 -293 4 -316 22 -336 25 -27 79 -28
106 -1 19 19 20 33 20 379 l0 359 193 109 c105 60 495 281 865 492 l673 383
299 -171 c205 -117 309 -171 330 -171 60 0 92 72 53 118 -27 31 -653 382 -682
382 -13 0 -49 -14 -80 -31 -31 -17 -483 -275 -1006 -572 -522 -297 -965 -546
-985 -553 -125 -45 -281 34 -325 165 -32 96 -6 198 67 268 27 26 2040 1182
2212 1271 75 38 160 36 241 -5 175 -90 2156 -1227 2193 -1258 116 -100 122
-266 12 -376 -70 -70 -174 -96 -260 -66 -19 7 -264 144 -545 303 -280 160
-524 298 -542 308 -43 22 -79 20 -103 -4 -23 -23 -27 -79 -7 -99 6 -7 202
-121 435 -253 l422 -241 0 -991 c0 -633 -4 -1014 -10 -1055 -14 -82 -47 -147
-103 -198 -93 -86 -162 -102 -429 -103 l-168 0 0 103 c-1 202 -25 312 -91 420
l-37 62 33 36 c81 90 122 207 111 319 -6 54 -3 75 13 114 58 133 70 305 31
428 -38 122 -79 143 -220 114 -102 -21 -221 -82 -298 -152 l-63 -57 -80 1
c-43 0 -83 1 -89 1 -5 1 -14 10 -20 21 -9 16 -5 36 16 93 33 88 38 211 11 297
-15 51 -15 60 -1 105 54 178 30 374 -61 512 -43 64 -65 71 -151 48 -80 -21
-164 -71 -230 -136 l-50 -50 -65 16 c-82 19 -216 19 -298 0 l-65 -16 -45 47
c-85 87 -213 154 -292 154 -58 0 -140 -119 -170 -245 -18 -78 -13 -239 9 -318
18 -63 18 -72 5 -115 -9 -27 -15 -86 -15 -137 -1 -101 20 -171 77 -260 35 -55
140 -157 187 -181 l30 -15 -60 -63 c-106 -110 -166 -223 -196 -368 -13 -62
-16 -146 -16 -423 l0 -346 -207 3 c-195 3 -211 4 -251 26 -63 34 -130 99 -157
153 -40 78 -45 147 -45 665 0 479 0 491 -20 509 -28 25 -76 23 -103 -4 l-22
-22 0 -527 c0 -484 2 -533 19 -595 42 -153 174 -290 325 -337 62 -20 95 -20
1530 -20 1313 0 1473 2 1522 16 151 44 279 169 332 324 l22 65 3 998 3 998 53
-30 c219 -126 481 -43 589 187 28 60 32 77 32 157 0 108 -19 169 -77 250 -50
70 -64 79 -495 325 l-341 195 -4 350 -3 350 -26 55 c-30 63 -86 122 -144 153
-37 21 -56 22 -285 25 -240 2 -246 2 -295 -21z m525 -150 c19 -12 43 -38 54
-57 20 -33 21 -54 24 -324 3 -276 3 -288 -15 -282 -10 4 -154 84 -321 179
l-304 172 4 116 c3 101 7 119 27 148 48 67 63 71 292 71 197 0 207 -1 239 -23z
m-2233 -1817 c28 -16 79 -61 114 -100 72 -80 74 -81 194 -50 43 11 108 20 145
20 37 0 102 -9 145 -20 119 -31 122 -30 192 48 59 67 171 141 192 127 5 -3 20
-31 32 -63 31 -82 30 -208 -4 -321 l-25 -84 20 -56 c24 -66 28 -170 9 -224
-15 -43 -11 -43 -108 -3 -34 15 -98 31 -142 38 -108 15 -135 4 -167 -68 -55
-125 -56 -283 -4 -432 27 -73 31 -100 30 -172 -2 -115 25 -199 90 -284 l49
-65 -35 -58 c-61 -101 -76 -167 -82 -350 l-4 -163 -370 0 -369 0 3 372 c3 372
4 373 29 439 54 139 139 243 254 310 67 39 86 72 67 113 -7 16 -40 38 -104 68
-175 84 -271 205 -271 346 0 39 7 91 18 125 18 56 18 58 -3 145 -29 120 -33
157 -23 228 10 68 48 164 65 164 6 0 34 -13 63 -30z m793 -845 c66 -14 154
-67 228 -139 l73 -71 145 -1 145 -1 72 71 c40 39 95 83 123 98 58 31 164 62
176 50 4 -4 12 -38 17 -75 14 -100 -3 -188 -59 -312 -20 -45 -21 -54 -10 -103
23 -105 -15 -202 -115 -287 -71 -61 -73 -88 -14 -160 89 -106 124 -234 117
-425 l-3 -85 -447 -3 -448 -2 0 129 c0 72 5 154 11 183 15 68 57 150 108 212
57 68 55 85 -25 159 -102 94 -135 189 -104 296 8 30 5 45 -24 110 -54 122 -69
230 -45 327 9 33 16 43 28 40 9 -2 32 -8 51 -11z"/>
</g>
</svg>
